<svg width="128" height="128" xmlns="http://www.w3.org/2000/svg">
  <!-- Background -->
  <rect width="128" height="128" fill="#1a1a2e"/>
  
  <!-- City skyline -->
  <rect x="10" y="60" width="20" height="60" fill="#16213e"/>
  <rect x="35" y="40" width="25" height="80" fill="#0f3460"/>
  <rect x="65" y="50" width="20" height="70" fill="#16213e"/>
  <rect x="90" y="45" width="28" height="75" fill="#0f3460"/>
  
  <!-- Windows -->
  <rect x="15" y="65" width="3" height="3" fill="#e94560" opacity="0.8"/>
  <rect x="20" y="65" width="3" height="3" fill="#f7f7f7" opacity="0.6"/>
  <rect x="15" y="72" width="3" height="3" fill="#f7f7f7" opacity="0.6"/>
  <rect x="20" y="72" width="3" height="3" fill="#e94560" opacity="0.8"/>
  
  <rect x="42" y="48" width="4" height="4" fill="#f7f7f7" opacity="0.6"/>
  <rect x="49" y="48" width="4" height="4" fill="#e94560" opacity="0.8"/>
  <rect x="42" y="56" width="4" height="4" fill="#e94560" opacity="0.8"/>
  <rect x="49" y="56" width="4" height="4" fill="#f7f7f7" opacity="0.6"/>
  
  <rect x="70" y="55" width="3" height="3" fill="#f7f7f7" opacity="0.6"/>
  <rect x="76" y="55" width="3" height="3" fill="#e94560" opacity="0.8"/>
  <rect x="70" y="62" width="3" height="3" fill="#e94560" opacity="0.8"/>
  <rect x="76" y="62" width="3" height="3" fill="#f7f7f7" opacity="0.6"/>
  
  <rect x="96" y="52" width="4" height="4" fill="#e94560" opacity="0.8"/>
  <rect x="104" y="52" width="4" height="4" fill="#f7f7f7" opacity="0.6"/>
  <rect x="96" y="60" width="4" height="4" fill="#f7f7f7" opacity="0.6"/>
  <rect x="104" y="60" width="4" height="4" fill="#e94560" opacity="0.8"/>
  
  <!-- Money symbol overlay -->
  <text x="64" y="45" font-family="Arial, sans-serif" font-size="32" font-weight="bold" text-anchor="middle" fill="#4caf50" opacity="0.9">$</text>
  
  <!-- Shadow/underground hint -->
  <ellipse cx="64" cy="115" rx="40" ry="8" fill="#000000" opacity="0.4"/>
  
  <!-- Title hint -->
  <rect x="30" y="5" width="68" height="20" fill="#e94560" opacity="0.8" rx="3"/>
  <text x="64" y="19" font-family="Arial, sans-serif" font-size="12" font-weight="bold" text-anchor="middle" fill="#ffffff">TYCOON</text>
</svg>